<svg xmlns="http://www.w3.org/2000/svg" version="1.1" id="Layer_1" x="0" y="0" width="1020" height="740.17" viewBox="0 0 1020 740.17" enable-background="new 0 0 1020 740.166" xml:space="preserve"><radialGradient id="SVGID_1_" cx="38.19" cy="-20.33" r="43.21" gradientTransform="matrix(1.4315 0 0 1.4318 217.0611 190.7381)" gradientUnits="userSpaceOnUse"><stop offset="0.1" stop-color="#FFFFFF"/><stop offset="0.4" stop-color="#FEC057"/><stop offset="0.85" stop-color="#F58220"/><stop offset="0.88" stop-color="#F58321"/><stop offset="0.91" stop-color="#F68829"/><stop offset="0.93" stop-color="#F78F37"/><stop offset="0.96" stop-color="#F89A4B"/><stop offset="0.98" stop-color="#FAA865"/><stop offset="1" stop-color="#FBB982"/><stop offset="1" stop-color="#FCBC86"/></radialGradient><ellipse fill="url(#SVGID_1_)" cx="257.2" cy="178.05" rx="41.25" ry="41.25"/><path fill="#F48220" d="M257.18 131.32c-9.41 0-18.14 0.62-26.14 3.67h52.16C275.24 131.94 266.56 131.32 257.18 131.32z"/><path fill="#F48220" d="M236.34 141.09h-21.37c-2.67 0.76-5.23 2.29-7.67 3.05h22.68C231.95 143.38 234.08 141.85 236.34 141.09zM224.48 149.48h-25.17c-2.75 3.05-5.26 4.58-7.46 6.87h28.08C221.24 154.06 222.77 152.53 224.48 149.48zM217.76 160.92h-29.72c-2.15 3.81-3.77 6.87-4.74 10.68h31.62C215.49 167.79 216.44 164.74 217.76 160.92zM299.48 171.6h31.57c-0.98-3.81-2.61-6.87-4.78-10.68h-29.64C297.95 164.74 298.91 167.79 299.48 171.6zM294.47 156.35h27.96c-2.21-2.29-4.73-3.81-7.51-6.86h-25C291.63 152.53 293.15 154.06 294.47 156.35zM284.43 144.14h22.48c-2.44-0.76-5-2.29-7.68-3.05h-21.18C280.31 141.85 282.45 143.38 284.43 144.14zM257.2 221.49c-7.17 0-13.92-2.59-19.85-4.87h-21.41c11.68 4.58 25.5 9.45 41.25 9.45 15.74 0 29.57-4.87 41.25-9.45H277.05C271.11 218.9 264.36 221.49 257.2 221.49zM294.78 199.07h28.17c3.05-3.81 5.45-7.63 7.03-10.68h-31.18C297.91 191.44 296.54 196.02 294.78 199.07zM279.89 214.32h21.7c2.51-1.53 4.92-2.89 7.21-4.34 4.17-2.63 7.98-4.82 11.25-8.63h-26.9C289.73 206.69 285.2 212.03 279.89 214.32zM214.33 178.1c0-1.1 0.06-1.15 0.14-3.44h-32c-0.12 2.29-0.2 2.42-0.2 3.47 0 2.37 0.33 4.92 0.93 7.21h31.72C214.54 183.05 214.33 180.5 214.33 178.1zM331.89 174.65h-31.96c0.08 2.29 0.14 2.34 0.14 3.44 0 2.4-0.21 4.95-0.59 7.24h31.68c0.61-2.29 0.94-4.84 0.94-7.21C332.09 177.07 332.02 176.94 331.89 174.65zM221.25 201.35H194.32c3.27 3.81 7.08 6 11.24 8.63 2.3 1.45 4.71 2.82 7.22 4.34h21.72C229.19 212.03 224.66 206.69 221.25 201.35zM215.59 188.39h-31.21c1.58 3.05 3.99 6.87 7.04 10.68h28.2C217.85 196.02 216.49 191.44 215.59 188.39z"/><polygon fill="#FFFFFF" points="377.56 159.67 356.21 159.67 356.21 141.85 422.36 141.85 422.36 159.67 401.03 159.67 401.03 217 377.56 217 "/><path fill="#FFFFFF" d="M434.16 184.04c0.97-5.82 4.59-9.04 10.88-9.04 5.45 0 9.29 4.06 9.29 9.04H434.16zM474.59 194.7c0-20.94-9.5-32.84-31.47-32.84 -17.49 0-29.24 12.75-29.24 28.41 0 17.91 13.35 28.08 31.05 28.08 12.6 0 24.22-5.41 28.49-17h-19.73c-1.7 2.59-5.44 3.83-8.86 3.83 -6.61 0-10.24-4.35-10.79-10.47H474.59L474.59 194.7z"/><rect x="485.1" y="141.85" fill="#FFFFFF" width="21.12" height="75.16"/><path fill="#FFFFFF" d="M537.17 184.04c0.98-5.82 4.59-9.04 10.88-9.04 5.45 0 9.29 4.06 9.29 9.04H537.17zM577.62 194.7c0-20.94-9.5-32.84-31.49-32.84 -17.48 0-29.22 12.75-29.22 28.41 0 17.91 13.33 28.08 31.04 28.08 12.6 0 24.22-5.41 28.49-17h-19.74c-1.69 2.59-5.44 3.83-8.85 3.83 -6.61 0-10.25-4.35-10.77-10.47H577.62L577.62 194.7z"/><polygon fill="#FFFFFF" points="624.33 217 599.37 217 581.23 163.2 603.51 163.2 612.16 195.95 612.38 195.95 621.13 163.2 642.69 163.2 "/><path fill="#FFFFFF" d="M651.23 163.2h21.09v53.8H651.23V163.2zM672.32 156.24H651.23v-14.4h21.09V156.24zM717.39 178.87c-0.1-1.78-1.07-3.12-2.47-4.06 -1.26-1.04-2.99-1.53-4.65-1.53 -2.99 0-6.4 0.6-6.4 4.12 0 1.56 1.27 2.29 2.45 2.81 3.52 1.47 11.52 1.87 18.56 4.14 7.02 2.17 13.22 6.23 13.22 15.03 0 14.92-14.72 18.98-28.16 18.98 -13.02 0-27.32-5.09-27.65-18.98h20.19c0.08 1.88 0.94 3.42 2.55 4.76 1.07 0.94 3.1 1.55 5.65 1.55 2.76 0 7.15-1.02 7.15-4.13 0-3.12-1.82-4.05-11.63-5.7 -16.1-2.71-22.62-7.68-22.62-16.9 0-13.59 15.05-17.1 26.16-17.1 11.92 0 26.33 3.2 26.85 17.01L717.39 178.87 717.39 178.87zM783.55 197.82c-0.31 5.6-4.07 8.39-8.87 8.39 -3.85 0-6.59-2.47-6.59-4.95 0-3.64 2.42-4.79 7.13-5.82 2.89-0.62 5.77-1.34 8.33-2.59V197.82L783.55 197.82zM803.82 182.9c0-10.37 0.22-21.04-26.25-21.04 -13.12 0-27.85 2.49-28.47 17.62h19.61c0.12-2.28 1.37-5.5 7.9-5.5 3.42 0 6.93 1.35 6.93 4.98 0 3.43-2.87 4.24-5.77 4.76 -10.75 1.97-31.23 1.34-31.23 18.34 0 11.3 8.82 16.28 19.52 16.28 6.81 0 13.32-1.44 17.8-6.44h0.23c-0.12 1.46 0.22 3.65 0.74 5.1h21.56c-2.35-3.42-2.57-7.98-2.57-12.03V182.9L803.82 182.9z"/><path fill="none" d="M108.29 301.53c-6.84-2.15-14.19-3.04-21.2-3.04 -7.01 0-14.36 0.89-21.2 3.04H108.29zM129.47 310.76c-1.76-1.28-5.83-3.5-7.98-4.22H52.68c-2.16 0.71-6.22 2.94-7.98 4.22H129.47zM142.17 321.18c-1.57-1.99-4.48-4.69-6.62-6.05H38.62c-2.14 1.36-5.05 4.06-6.62 6.05H142.17zM148.65 332.13c-0.45-2.06-2.1-5.47-3.65-7.2H29.17c-1.55 1.73-3.2 5.13-3.65 7.2H148.65zM148.73 343.21c0.54-1.8 0.82-3.6 0.82-5.41 0-0.81-0.06-1.63-0.17-2.46H24.8c-0.11 0.82-0.17 1.64-0.17 2.46 0 1.81 0.28 3.62 0.82 5.41H148.73zM142.09 354.33c2.18-2.01 4.66-5.81 5.64-8.4H26.45c0.98 2.59 3.46 6.39 5.64 8.4H142.09zM127.99 365.6c3.55-1.69 9.15-6.01 12.12-8.99H34.06c2.97 2.99 8.58 7.31 12.12 8.99H127.99zM87.09 377.1c12.93 0 26.61-3.74 37.74-9.59H49.34C60.48 373.35 74.16 377.1 87.09 377.1z"/><path fill="none" d="M87.08 303.44c-18.97 0-34.35 15.38-34.35 34.35 0 18.98 15.38 34.35 34.35 34.35 18.97 0 34.35-15.38 34.35-34.35C121.43 318.83 106.05 303.44 87.08 303.44z"/><path fill="#FFFFFF" d="M25.14 403.49c0 4.95-2.85 7.18-6.78 7.18 -0.8 0-1.64-0.06-2.2-0.15v-14.09c0.65-0.06 1.52-0.1 2.45-0.1C23.38 396.34 25.14 399.01 25.14 403.49zM29.48 403.19c0-7.34-4.12-10.22-10.59-10.22 -2.57 0-5.11 0.09-6.75 0.16v20.84c1.76 0.06 3.65 0.15 5.82 0.15C24.77 414.11 29.48 410.37 29.48 403.19zM35.12 413.99v-20.9h11.36v3.38h-7.34v5.14h6.97v3.28h-6.97v5.67h7.34v3.44L35.12 413.99 35.12 413.99zM62.08 399.69c0 2.26-1.7 3.62-4.18 3.65 -0.37 0-0.77-0.03-1.18-0.09v-6.97c0.47-0.03 0.93-0.03 1.42-0.03C60.88 396.25 62.08 397.58 62.08 399.69zM66.27 399.44c0-4.09-2.82-6.47-7.96-6.47 -2.04 0-3.9 0.03-5.61 0.13v20.9h4.03v-7.37c0.5 0.06 0.99 0.06 1.36 0.06C63.17 406.68 66.27 403.49 66.27 399.44zM85.62 403.56c0 5.02-2.91 7.12-5.63 7.12 -3.75 0-5.48-2.88-5.48-7.31 0-4.71 2.66-7 5.54-7C83.63 396.37 85.62 398.91 85.62 403.56zM89.92 403.25c0-7.15-3.93-10.5-9.51-10.5 -5.61 0-10.22 4.15-10.22 11.06 0 6.47 3.13 10.53 9.51 10.53C85.37 414.33 89.92 410.15 89.92 403.25zM104.82 399.25c0 1.95-1.49 3.19-3.9 3.19 -0.62 0-1.18-0.03-1.45-0.06v-6.04c0.4-0.06 0.99-0.09 1.58-0.09C103.58 396.25 104.82 397.24 104.82 399.25zM110.42 413.99l-5.02-7.03c-0.53-0.71-1.11-1.52-1.7-2.29 3.16-0.5 5.32-2.73 5.32-5.82 0-4.27-2.97-5.88-7.58-5.88 -2.41 0-4.36 0.03-6.01 0.12v20.9h4.03v-8.64h0.15l5.82 8.64H110.42zM122.25 396.53v17.47h-4.03v-17.46h-5.42v-3.44h14.87v3.44H122.25zM132.31 413.99v-20.9h11.36v3.38h-7.34v5.14h6.97v3.28h-6.97v5.67h7.34v3.44L132.31 413.99 132.31 413.99zM153.77 414.33c-1.49 0-2.97-0.16-4.27-0.5l0.25-3.74c1.18 0.4 2.85 0.74 4.36 0.74 2.04 0 3.63-0.84 3.63-2.76 0-4-8.76-2.17-8.76-9.04 0-3.72 2.94-6.28 7.96-6.28 1.18 0 2.54 0.15 3.78 0.37l-0.22 3.53c-1.18-0.35-2.48-0.56-3.75-0.56 -2.32 0-3.5 1.05-3.5 2.54 0 3.75 8.79 2.35 8.79 8.89C162.04 411.45 158.91 414.33 153.77 414.33z"/><path fill="#F58220" d="M108.29 301.53c-6.84-2.15-14.19-3.04-21.2-3.04 -7.01 0-14.36 0.89-21.2 3.04H108.29zM129.47 310.76c-1.76-1.28-5.82-3.5-7.98-4.22H52.69c-2.16 0.71-6.22 2.94-7.98 4.22H129.47zM142.17 321.18c-1.57-1.99-4.48-4.69-6.62-6.05H38.62c-2.14 1.36-5.05 4.06-6.62 6.05H142.17zM148.65 332.13c-0.45-2.06-2.1-5.47-3.65-7.2H29.17c-1.55 1.73-3.2 5.13-3.65 7.2H148.65zM148.73 343.21c0.54-1.8 0.81-3.6 0.81-5.41 0-0.81-0.06-1.63-0.17-2.46H24.8c-0.11 0.82-0.17 1.64-0.17 2.46 0 1.81 0.28 3.62 0.81 5.41H148.73zM142.09 354.33c2.18-2.01 4.66-5.81 5.64-8.4H26.45c0.98 2.59 3.46 6.39 5.64 8.4H142.09zM127.99 365.6c3.55-1.69 9.15-6.01 12.12-8.99H34.06c2.97 2.99 8.57 7.31 12.12 8.99H127.99zM87.09 377.1c12.93 0 26.61-3.74 37.74-9.59H49.34C60.48 373.35 74.16 377.1 87.09 377.1z"/><radialGradient id="SVGID_2_" cx="-4421.23" cy="-3536.59" r="58.98" gradientTransform="matrix(0.8735 0 0 0.8735 3961.1631 3413.2102)" gradientUnits="userSpaceOnUse"><stop offset="0.1" stop-color="#FFFFFF"/><stop offset="0.14" stop-color="#FFF5E6"/><stop offset="0.27" stop-color="#FED899"/><stop offset="0.36" stop-color="#FDC569"/><stop offset="0.4" stop-color="#FDBE57"/><stop offset="0.56" stop-color="#FAAC46"/><stop offset="0.85" stop-color="#F48120"/><stop offset="0.9" stop-color="#F48423"/><stop offset="0.94" stop-color="#F68D2D"/><stop offset="0.98" stop-color="#F89B3E"/><stop offset="1" stop-color="#F9A64A"/></radialGradient><path fill="url(#SVGID_2_)" d="M87.08 303.44c-18.97 0-34.35 15.38-34.35 34.35 0 18.98 15.38 34.35 34.35 34.35 18.97 0 34.35-15.38 34.35-34.35C121.43 318.83 106.05 303.44 87.08 303.44z"/><radialGradient id="SVGID_3_" cx="38.07" cy="96.5" r="43.32" gradientTransform="matrix(1.4315 0 0 1.4318 217.0611 190.7381)" gradientUnits="userSpaceOnUse"><stop offset="0.1" stop-color="#FFFFFF"/><stop offset="0.4" stop-color="#FEC057"/><stop offset="0.85" stop-color="#F58220"/><stop offset="0.88" stop-color="#F58321"/><stop offset="0.91" stop-color="#F68829"/><stop offset="0.93" stop-color="#F78F37"/><stop offset="0.96" stop-color="#F89A4B"/><stop offset="0.98" stop-color="#FAA865"/><stop offset="1" stop-color="#FBB982"/><stop offset="1" stop-color="#FCBC86"/></radialGradient><ellipse fill="url(#SVGID_3_)" cx="256.98" cy="345.37" rx="41.35" ry="41.36"/><path fill="#F48220" d="M256.97 298.52c-9.44 0-18.19 0.62-26.2 3.68h52.29C275.08 299.14 266.37 298.52 256.97 298.52z"/><path fill="#F48220" d="M236.07 308.32h-21.43c-2.68 0.76-5.24 2.29-7.69 3.06h22.73C231.67 310.61 233.81 309.08 236.07 308.32zM224.18 316.73h-25.23c-2.76 3.06-5.27 4.59-7.48 6.88h28.15C220.94 321.32 222.47 319.79 224.18 316.73zM217.45 328.2H187.66c-2.16 3.82-3.78 6.88-4.75 10.71h31.69C215.17 335.08 216.13 332.02 217.45 328.2zM299.37 338.91h31.65c-0.98-3.82-2.62-6.88-4.79-10.7h-29.71C297.84 332.02 298.8 335.08 299.37 338.91zM294.35 323.61h28.03c-2.22-2.29-4.75-3.83-7.53-6.88h-25.06C291.5 319.79 293.03 321.32 294.35 323.61zM284.28 311.38h22.54c-2.45-0.77-5.01-2.29-7.7-3.06h-21.23C280.16 309.08 282.3 310.61 284.28 311.38zM256.98 388.92c-7.18 0-13.95-2.6-19.9-4.89H215.62c11.71 4.59 25.57 9.47 41.35 9.47 15.78 0 29.64-4.88 41.35-9.47h-21.44C270.94 386.32 264.17 388.92 256.98 388.92zM294.66 366.44h28.24c3.06-3.82 5.47-7.65 7.05-10.7h-31.26C297.79 358.79 296.43 363.38 294.66 366.44zM279.73 381.73h21.75c2.52-1.53 4.93-2.9 7.23-4.35 4.18-2.63 8-4.82 11.28-8.65h-26.97C289.6 374.09 285.06 379.44 279.73 381.73zM214.01 345.41c0-1.1 0.06-1.15 0.14-3.45h-32.08c-0.13 2.3-0.2 2.42-0.2 3.48 0 2.38 0.33 4.93 0.94 7.23h31.8C214.22 350.38 214.01 347.82 214.01 345.41zM331.86 341.97H299.82c0.08 2.3 0.14 2.35 0.14 3.45 0 2.41-0.21 4.96-0.59 7.26h31.76c0.61-2.29 0.94-4.85 0.94-7.22C332.06 344.39 331.99 344.26 331.86 341.97zM220.95 368.73H193.95c3.28 3.82 7.09 6.01 11.27 8.65 2.3 1.45 4.72 2.82 7.23 4.35h21.78C228.91 379.44 224.37 374.09 220.95 368.73zM215.27 355.73h-31.29c1.58 3.06 4 6.88 7.05 10.71h28.27C217.54 363.38 216.17 358.79 215.27 355.73z"/><path fill="#FFFFFF" d="M402.31 345.84c0 17.56-10.09 25.46-24.03 25.46 -2.85 0-5.81-0.23-7.8-0.54V320.82c2.31-0.22 5.38-0.33 8.68-0.33C396.05 320.49 402.31 329.92 402.31 345.84zM417.68 344.74c0-26.02-14.59-36.22-37.54-36.22 -9.11 0-18.1 0.33-23.92 0.56v73.86c6.25 0.21 12.95 0.54 20.63 0.54C400.99 383.48 417.68 370.2 417.68 344.74zM437.65 383.04v-74.08h40.27v11.97H451.91v18.22H476.6v11.63H451.91v20.09h26.01v12.18L437.65 383.04 437.65 383.04zM533.23 332.34c0 8-6.03 12.83-14.81 12.94 -1.31 0-2.74-0.11-4.17-0.32v-24.7c1.65-0.1 3.3-0.1 5.04-0.1C528.96 320.16 533.23 324.88 533.23 332.34zM548.06 331.46c0-14.48-9.98-22.94-28.2-22.94 -7.25 0-13.83 0.11-19.87 0.44v74.08h14.27v-26.12c1.75 0.22 3.52 0.22 4.83 0.22C537.09 357.14 548.06 345.84 548.06 331.46zM616.64 346.06c0 17.78-10.31 25.24-19.97 25.24 -13.28 0-19.42-10.21-19.42-25.9 0-16.68 9.43-24.8 19.63-24.8C609.61 320.6 616.64 329.58 616.64 346.06zM631.89 344.96c0-25.35-13.94-37.2-33.69-37.2 -19.87 0-36.23 14.7-36.23 39.18 0 22.93 11.08 37.31 33.69 37.31C615.76 384.26 631.89 369.43 631.89 344.96zM684.68 330.8c0 6.91-5.27 11.31-13.84 11.31 -2.19 0-4.17-0.12-5.14-0.23v-21.4c1.42-0.23 3.51-0.33 5.59-0.33C680.29 320.16 684.68 323.67 684.68 330.8zM704.55 383.04l-17.78-24.91c-1.87-2.52-3.95-5.38-6.03-8.12 11.19-1.76 18.86-9.67 18.86-20.64 0-15.15-10.52-20.85-26.88-20.85 -8.56 0-15.47 0.11-21.29 0.44v74.08h14.27v-30.61h0.54l20.63 30.61H704.55L704.55 383.04zM746.45 321.14v61.9h-14.27v-61.9H712.97v-12.18h52.69v12.18H746.45zM782.12 383.04v-74.08h40.27v11.97H796.39v18.22h24.69v11.63H796.39v20.09h26.01v12.18L782.12 383.04 782.12 383.04zM858.18 384.26c-5.27 0-10.53-0.56-15.15-1.77l0.89-13.27c4.16 1.43 10.1 2.64 15.46 2.64 7.24 0 12.85-2.97 12.85-9.77 0-14.16-31.06-7.69-31.06-32.04 0-13.17 10.43-22.27 28.21-22.27 4.18 0 9 0.54 13.39 1.32l-0.76 12.52c-4.19-1.22-8.8-1.99-13.28-1.99 -8.23 0-12.41 3.73-12.41 8.99 0 13.28 31.16 8.34 31.16 31.5C887.48 374.03 876.4 384.26 858.18 384.26z"/><path fill="#F48120" d="M25.88 493.16h123.24c-0.82-2.67-2.27-5.36-4.23-7.98H30.11C28.14 487.8 26.7 490.49 25.88 493.16zM87.5 538.39h0c11.65 0.26 23.89-2.88 34.42-7.89H53.08C63.61 535.51 75.85 538.64 87.5 538.39zM25.1 498.95v0.25c-0.1 1.82 0.15 3.68 0.7 5.54h123.39c0.55-1.86 0.8-3.72 0.7-5.54v-0.25c0.04-0.83 0.02-1.65-0.08-2.49H25.18C25.09 497.3 25.06 498.13 25.1 498.95zM33.32 481.41h108.36c-1.8-1.88-3.85-3.71-6.11-5.46H39.42C37.17 477.7 35.12 479.53 33.32 481.41zM33.16 516.57h108.68c2.76-2.91 4.91-5.95 6.3-9.01H26.86C28.25 510.63 30.4 513.66 33.16 516.57zM50.25 529.08h74.49c5.72-3 10.85-6.56 14.95-10.39H35.3C39.4 522.53 44.52 526.08 50.25 529.08zM87.5 459.77h0c-7.19-0.16-14.61 0.98-21.71 3.05h43.41C102.1 460.74 94.69 459.61 87.5 459.77zM52.37 468c-2.36 1.15-4.63 2.4-6.78 3.72h83.81c-2.15-1.32-4.42-2.56-6.78-3.72H52.37z"/><radialGradient id="SVGID_4_" cx="-81.85" cy="205.04" r="36.08" gradientTransform="matrix(1.4318 0 0 1.4318 216.8171 191.783)" gradientUnits="userSpaceOnUse"><stop offset="0.1" stop-color="#FFFFFF"/><stop offset="0.4" stop-color="#FDBE57"/><stop offset="0.85" stop-color="#F48120"/><stop offset="0.89" stop-color="#F48323"/><stop offset="0.91" stop-color="#F5892D"/><stop offset="0.94" stop-color="#F6923E"/><stop offset="0.97" stop-color="#F8A056"/><stop offset="0.99" stop-color="#FAB174"/><stop offset="1" stop-color="#FBBB85"/></radialGradient><circle fill="url(#SVGID_4_)" cx="87.49" cy="499.07" r="34.44"/><path fill="#FFFFFF" d="M41.17 562.3l-3.65-6.27c-0.55-0.94-0.98-1.86-1.34-2.67 0.07 1.07 0.11 3.02 0.11 4.51v4.43h-2.32V549.88h3.11l3.46 5.93c0.57 0.96 1.07 1.99 1.53 2.93 -0.09-1.25-0.13-3.46-0.13-4.99v-3.86h2.32v12.42L41.17 562.3 41.17 562.3zM53.39 551.83c-1.71 0-3.29 1.36-3.29 4.16 0 2.63 1.03 4.34 3.26 4.34 1.62 0 3.35-1.25 3.35-4.24C56.7 553.34 55.53 551.83 53.39 551.83M53.19 562.51c-3.79 0-5.65-2.41-5.65-6.26 0-4.1 2.74-6.57 6.07-6.57 3.31 0 5.65 1.99 5.65 6.24C59.26 560.02 56.56 562.51 53.19 562.51"/><polygon fill="#FFFFFF" points="66.44 551.92 66.44 562.3 64.05 562.3 64.05 551.92 60.82 551.92 60.82 549.88 69.66 549.88 69.66 551.92 "/><rect x="72.42" y="549.88" fill="#FFFFFF" width="2.39" height="12.42"/><path fill="#FFFFFF" d="M83.92 562.47c-4.34 0-5.74-2.89-5.74-5.98 0-3.94 2.06-6.7 6.22-6.7 0.88 0 1.82 0.11 2.63 0.33l-0.26 2.17c-0.81-0.24-1.66-0.37-2.5-0.37 -2.32 0-3.46 1.75-3.46 4.16 0 2.71 1.12 4.22 3.63 4.22 0.76 0 1.77-0.22 2.41-0.52l0.28 2.14C86.21 562.25 85.08 562.47 83.92 562.47"/><rect x="90.7" y="549.88" fill="#FFFFFF" width="2.39" height="12.42"/><polygon fill="#FFFFFF" points="97.4 562.3 97.4 549.88 104.15 549.88 104.15 551.89 99.79 551.89 99.79 554.94 103.93 554.94 103.93 556.89 99.79 556.89 99.79 560.26 104.15 560.26 104.15 562.3 "/><path fill="#FFFFFF" d="M111.18 551.76c-0.35 0-0.7 0.02-0.94 0.06v3.59c0.17 0.02 0.5 0.04 0.86 0.04 1.44 0 2.32-0.73 2.32-1.9C113.43 552.34 112.69 551.76 111.18 551.76M113.8 562.3l-3.46-5.13h-0.09v5.13h-2.39V549.88c0.97-0.06 2.13-0.07 3.57-0.07 2.74 0 4.51 0.96 4.51 3.5 0 1.84-1.29 3.17-3.17 3.46 0.35 0.46 0.7 0.94 1.01 1.36l2.98 4.18H113.8zM124.66 551.83c-1.71 0-3.3 1.36-3.3 4.16 0 2.63 1.03 4.34 3.26 4.34 1.62 0 3.35-1.25 3.35-4.24C127.97 553.34 126.79 551.83 124.66 551.83M124.45 562.51c-3.79 0-5.65-2.41-5.65-6.26 0-4.1 2.74-6.57 6.07-6.57 3.31 0 5.65 1.99 5.65 6.24C130.53 560.02 127.82 562.51 124.45 562.51M136.1 562.51c-0.88 0-1.77-0.09-2.54-0.3l0.15-2.23c0.7 0.24 1.69 0.44 2.6 0.44 1.22 0 2.15-0.49 2.15-1.64 0-2.38-5.21-1.29-5.21-5.38 0-2.21 1.75-3.74 4.73-3.74 0.7 0 1.51 0.09 2.24 0.22l-0.13 2.1c-0.7-0.2-1.47-0.33-2.23-0.33 -1.38 0-2.08 0.63-2.08 1.51 0 2.23 5.23 1.4 5.23 5.28C141.02 560.79 139.16 562.51 136.1 562.51"/><polygon fill="#FFFFFF" points="20.77 580.54 13.76 580.54 13.76 574.12 35.49 574.12 35.49 580.54 28.48 580.54 28.48 599.14 20.77 599.14 "/><path fill="#FFFFFF" d="M52.84 591.6c0-7.07-3.12-11.1-10.34-11.1 -5.75 0-9.6 4.31-9.6 9.6 0 6.06 4.38 9.49 10.2 9.49 4.14 0 7.95-1.82 9.35-5.74h-6.48c-0.56 0.87-1.79 1.29-2.91 1.29 -2.17 0-3.36-1.47-3.54-3.55H52.84zM39.56 588c0.31-1.96 1.51-3.05 3.57-3.05 1.79 0 3.05 1.37 3.05 3.05H39.56z"/><rect x="56.24" y="574.12" fill="#FFFFFF" width="6.94" height="25.02"/><path fill="#FFFFFF" d="M86.48 591.6c0-7.07-3.12-11.1-10.34-11.1 -5.75 0-9.6 4.31-9.6 9.6 0 6.06 4.38 9.49 10.2 9.49 4.14 0 7.95-1.82 9.36-5.74h-6.48c-0.56 0.87-1.78 1.29-2.91 1.29 -2.17 0-3.37-1.47-3.54-3.55H86.48zM73.19 588c0.32-1.96 1.51-3.05 3.58-3.05 1.79 0 3.05 1.37 3.05 3.05H73.19z"/><polygon fill="#FFFFFF" points="101.82 599.14 93.62 599.14 87.67 580.96 94.99 580.96 97.83 592.03 97.9 592.03 100.77 580.96 107.85 580.96 "/><path fill="#FFFFFF" d="M117.34 578.99h-6.93v-4.87h6.93V578.99zM110.41 580.96h6.93v18.18h-6.93V580.96z"/><path fill="#FFFFFF" d="M132 586.24c-0.03-0.6-0.35-1.05-0.81-1.36 -0.42-0.35-0.98-0.52-1.53-0.52 -0.98 0-2.11 0.21-2.11 1.4 0 0.53 0.43 0.77 0.81 0.95 1.16 0.49 3.78 0.63 6.1 1.4 2.31 0.73 4.35 2.1 4.35 5.08 0 5.05-4.84 6.41-9.25 6.41 -4.28 0-8.97-1.72-9.08-6.41h6.63c0.03 0.64 0.31 1.16 0.84 1.61 0.35 0.32 1.02 0.53 1.86 0.53 0.91 0 2.35-0.35 2.35-1.4s-0.6-1.37-3.82-1.93c-5.29-0.91-7.43-2.59-7.43-5.71 0-4.59 4.94-5.78 8.59-5.78 3.92 0 8.65 1.08 8.82 5.75H132L132 586.24zM160.38 587.61c0-3.5 0.07-7.11-8.62-7.11 -4.31 0-9.15 0.84-9.35 5.96h6.45c0.04-0.77 0.45-1.86 2.59-1.86 1.12 0 2.28 0.46 2.28 1.69 0 1.16-0.94 1.44-1.89 1.61 -3.54 0.67-10.27 0.46-10.27 6.2 0 3.82 2.9 5.5 6.42 5.5 2.23 0 4.38-0.48 5.85-2.18h0.07c-0.03 0.5 0.07 1.23 0.25 1.72h7.08c-0.77-1.15-0.85-2.69-0.85-4.06v-7.46L160.38 587.61 160.38 587.61zM153.73 592.66c-0.11 1.89-1.33 2.84-2.91 2.84 -1.26 0-2.17-0.84-2.17-1.68 0-1.23 0.8-1.62 2.34-1.97 0.95-0.21 1.9-0.45 2.74-0.88V592.66z"/><path fill="#F58220" d="M65.31 624.54h43.8c-6.68-1.93-13.98-3.08-21.85-3.08C79.35 621.46 72.03 622.61 65.31 624.54zM45.37 633.29h83.65c-2.05-1.23-4.2-2.42-6.45-3.52H51.81C49.56 630.87 47.42 632.05 45.37 633.29zM32.4 643.29h109.64c-1.86-1.93-3.98-3.76-6.3-5.5H38.66C36.35 639.53 34.25 641.37 32.4 643.29zM25.23 655.02h124.05c-0.82-2.8-2.19-5.44-4.01-7.93H29.21C27.4 649.59 26.04 652.23 25.23 655.02zM24.36 661.08c0 1.99 0.27 3.9 0.78 5.75H149.37c0.51-1.85 0.78-3.76 0.78-5.75 0-0.89-0.06-1.76-0.17-2.62H24.53C24.42 659.32 24.36 660.19 24.36 661.08zM32.04 678.47h110.45c2.56-2.74 4.58-5.67 5.9-8.81H26.13C27.45 672.8 29.48 675.73 32.04 678.47zM43.92 687.97c1.93 1.21 3.95 2.38 6.06 3.49h74.57c2.11-1.1 4.13-2.27 6.05-3.48 3.5-2.2 6.7-4.56 9.44-7.09H34.48C37.22 683.41 40.42 685.76 43.92 687.97zM87.26 700.71c13.22 0 24.83-3.23 34.64-7.93H52.63C62.44 697.48 74.04 700.71 87.26 700.71z"/><radialGradient id="SVGID_5_" cx="-80.72" cy="317.31" r="36.28" gradientTransform="matrix(1.4352 0 0 1.4352 215.3294 191.8561)" gradientUnits="userSpaceOnUse"><stop offset="0.1" stop-color="#FFFFFF"/><stop offset="0.4" stop-color="#FEC057"/><stop offset="0.85" stop-color="#F58220"/><stop offset="0.88" stop-color="#F58321"/><stop offset="0.91" stop-color="#F68829"/><stop offset="0.93" stop-color="#F78F37"/><stop offset="0.96" stop-color="#F89A4B"/><stop offset="0.98" stop-color="#FAA865"/><stop offset="1" stop-color="#FBB982"/><stop offset="1" stop-color="#FCBC86"/></radialGradient><path fill="url(#SVGID_5_)" d="M87.25 626.36c-19.18 0-34.72 15.54-34.72 34.72 0 19.18 15.54 34.72 34.72 34.72 19.17 0 34.72-15.54 34.72-34.72C121.97 641.91 106.42 626.36 87.25 626.36z"/><path fill="#FFFFFF" d="M94.43 731.17v-19.47h3.75v19.47H94.43zM116.9 731.25v-19.47h3.75v19.47H116.9zM21.14 715.08v16.27h-3.75v-16.27H12.34v-3.2h13.84v3.21H21.14zM30.51 731.34v-19.47h10.59v3.15h-6.84v4.79h6.49v3.06h-6.49v5.28h6.84v3.2H30.51zM60.42 731.25v-19.47H71v3.15h-6.83v4.79h6.49v3.06h-6.49v5.28H71v3.2L60.42 731.25 60.42 731.25zM138.26 721.53c0 4.68-2.71 6.64-5.25 6.64 -3.49 0-5.11-2.68-5.11-6.81 0-4.39 2.48-6.52 5.16-6.52C136.42 714.84 138.26 717.21 138.26 721.53zM142.27 721.25c0-6.66-3.66-9.78-8.86-9.78 -5.22 0-9.52 3.87-9.52 10.3 0 6.03 2.91 9.81 8.85 9.81C138.03 731.57 142.27 727.68 142.27 721.25zM157.46 731.25l-5.71-9.83c-0.87-1.47-1.53-2.91-2.11-4.18 0.12 1.67 0.18 4.73 0.18 7.06v6.95h-3.63v-19.47h4.87l5.43 9.29c0.89 1.5 1.67 3.11 2.39 4.59 -0.14-1.96-0.2-5.42-0.2-7.82v-6.06h3.63v19.47L157.46 731.25 157.46 731.25zM46.2 731.34v-19.47h3.75v16.18h6.32v3.29H46.2zM84.6 731.18h-4.29l-6.73-19.32h4.07l3.75 11.31c0.37 1.09 0.8 2.38 1.15 3.78h0.06c0.29-1.31 0.6-2.38 1.15-4.01l3.81-11.08h3.81L84.6 731.18zM106.47 731.58c-1.39 0-2.77-0.15-3.98-0.46l0.23-3.49c1.1 0.38 2.66 0.69 4.07 0.69 1.9 0 3.37-0.78 3.37-2.57 0-3.72-8.17-2.02-8.17-8.42 0-3.47 2.74-5.86 7.42-5.86 1.1 0 2.36 0.15 3.52 0.35l-0.2 3.29c-1.1-0.32-2.31-0.52-3.49-0.52 -2.16 0-3.26 0.98-3.26 2.36 0 3.49 8.2 2.19 8.2 8.28C114.17 728.9 111.26 731.58 106.47 731.58z"/><radialGradient id="SVGID_6_" cx="38.16" cy="322.09" r="43.3" gradientTransform="matrix(1.4315 0 0 1.4318 217.0611 190.7381)" gradientUnits="userSpaceOnUse"><stop offset="0.1" stop-color="#FFFFFF"/><stop offset="0.4" stop-color="#FEC057"/><stop offset="0.85" stop-color="#F58220"/><stop offset="0.88" stop-color="#F58321"/><stop offset="0.91" stop-color="#F68829"/><stop offset="0.93" stop-color="#F78F37"/><stop offset="0.96" stop-color="#F89A4B"/><stop offset="0.98" stop-color="#FAA865"/><stop offset="1" stop-color="#FBB982"/><stop offset="1" stop-color="#FCBC86"/></radialGradient><ellipse fill="url(#SVGID_6_)" cx="257.12" cy="668.36" rx="41.33" ry="41.34"/><path fill="#F48220" d="M257.11 621.54c-9.43 0-18.18 0.62-26.19 3.68h52.26C275.2 622.16 266.5 621.54 257.11 621.54z"/><path fill="#F48220" d="M236.22 631.33h-21.42c-2.68 0.77-5.24 2.29-7.69 3.06h22.72C231.82 633.62 233.96 632.09 236.22 631.33zM224.34 639.74h-25.22c-2.76 3.06-5.27 4.59-7.47 6.88h28.13C221.1 644.33 222.62 642.8 224.34 639.74zM217.61 651.2h-29.78c-2.15 3.82-3.78 6.88-4.75 10.7h31.68C215.33 658.08 216.29 655.03 217.61 651.2zM299.48 661.91h31.64c-0.98-3.82-2.62-6.88-4.79-10.7h-29.69C297.96 655.03 298.92 658.08 299.48 661.91zM294.46 646.62h28.02c-2.22-2.29-4.75-3.82-7.52-6.88h-25.05C291.62 642.8 293.15 644.33 294.46 646.62zM284.4 634.39h22.53c-2.45-0.77-5.01-2.29-7.69-3.06H278.02C280.28 632.09 282.42 633.62 284.4 634.39zM257.12 711.89c-7.18 0-13.94-2.59-19.89-4.89h-21.45c11.71 4.59 25.56 9.47 41.33 9.47 15.77 0 29.63-4.88 41.33-9.46h-21.43C271.07 709.29 264.3 711.89 257.12 711.89zM294.78 689.42h28.23c3.05-3.82 5.46-7.64 7.05-10.7h-31.24C297.91 681.78 296.55 686.36 294.78 689.42zM279.86 704.71h21.74c2.52-1.53 4.92-2.89 7.22-4.35 4.18-2.63 7.99-4.83 11.27-8.65h-26.95C289.72 697.06 285.18 702.42 279.86 704.71zM214.17 668.41c0-1.1 0.06-1.15 0.14-3.45h-32.06c-0.13 2.29-0.2 2.42-0.2 3.48 0 2.38 0.33 4.93 0.94 7.22h31.78C214.38 673.37 214.17 670.82 214.17 668.41zM331.96 664.96h-32.02c0.08 2.29 0.14 2.35 0.14 3.45 0 2.41-0.21 4.96-0.59 7.25h31.74c0.61-2.29 0.94-4.85 0.94-7.22C332.16 667.38 332.09 667.26 331.96 664.96zM221.1 691.72h-26.98c3.28 3.82 7.09 6.01 11.27 8.64 2.3 1.45 4.71 2.82 7.23 4.35h21.77C229.06 702.42 224.52 697.06 221.1 691.72zM215.43 678.72h-31.27c1.58 3.06 4 6.88 7.05 10.7h28.26C217.7 686.36 216.33 681.78 215.43 678.72z"/><path fill="#FFFFFF" d="M665.16 704.31v-73.27h14.1v73.27H665.16zM749.74 704.63v-73.27h14.11v73.27H749.74zM389.33 643.75v61.22h-14.12v-61.22h-18.99v-12.06h52.1v12.06H389.33zM424.59 704.97v-73.28h39.85v11.83h-25.73v18.02h24.43v11.52h-24.43v19.86h25.73v12.05H424.59zM537.14 704.63v-73.27h39.84v11.84h-25.72v18.02h24.42v11.5h-24.42v19.86h25.73v12.04L537.14 704.63 537.14 704.63zM830.12 668.05c0 17.59-10.21 24.98-19.76 24.98 -13.13 0-19.22-10.1-19.22-25.61 0-16.51 9.34-24.55 19.43-24.55C823.17 642.87 830.12 651.78 830.12 668.05zM845.2 666.98c0-25.08-13.79-36.81-33.33-36.81 -19.64 0-35.82 14.56-35.82 38.76 0 22.7 10.96 36.92 33.32 36.92C829.24 705.84 845.2 691.18 845.2 666.98zM902.35 704.63l-21.48-37c-3.26-5.53-5.76-10.97-7.93-15.74 0.44 6.29 0.66 17.79 0.66 26.6v26.15h-13.68v-73.27h18.34l20.42 34.96c3.36 5.64 6.28 11.72 9.01 17.26 -0.55-7.39-0.77-20.4-0.77-29.42v-22.79h13.67v73.27H902.35L902.35 704.63zM483.64 704.97v-73.28h14.09v60.9h23.78v12.38H483.64L483.64 704.97zM628.16 704.36h-16.17l-25.32-72.71h15.31l14.11 42.55c1.4 4.1 3.02 8.95 4.31 14.22h0.22c1.08-4.95 2.26-8.94 4.31-15.08l14.33-41.69h14.33L628.16 704.36zM710.47 705.85c-5.22 0-10.43-0.56-14.99-1.75l0.86-13.13c4.12 1.41 10 2.6 15.32 2.6 7.17 0 12.7-2.92 12.7-9.66 0-14-30.73-7.59-30.73-31.69 0-13.05 10.32-22.06 27.92-22.06 4.13 0 8.89 0.55 13.24 1.3l-0.77 12.39c-4.13-1.19-8.69-1.94-13.13-1.94 -8.14 0-12.27 3.68-12.27 8.9 0 13.14 30.84 8.25 30.84 31.16C739.46 695.76 728.48 705.85 710.47 705.85z"/><radialGradient id="SVGID_7_" cx="38.18" cy="209.09" r="43.3" gradientTransform="matrix(1.4315 0 0 1.4318 217.0611 190.7381)" gradientUnits="userSpaceOnUse"><stop offset="0.1" stop-color="#FFFFFF"/><stop offset="0.4" stop-color="#FEC057"/><stop offset="0.85" stop-color="#F58220"/><stop offset="0.88" stop-color="#F58321"/><stop offset="0.91" stop-color="#F68829"/><stop offset="0.93" stop-color="#F78F37"/><stop offset="0.96" stop-color="#F89A4B"/><stop offset="0.98" stop-color="#FAA865"/><stop offset="1" stop-color="#FBB982"/><stop offset="1" stop-color="#FCBC86"/></radialGradient><ellipse fill="url(#SVGID_7_)" cx="257.16" cy="506.56" rx="41.33" ry="41.34"/><path fill="#F48220" d="M257.14 459.74c-9.43 0-18.18 0.62-26.19 3.68h52.26C275.24 460.36 266.54 459.74 257.14 459.74z"/><path fill="#F48220" d="M236.26 469.53h-21.42c-2.68 0.77-5.24 2.29-7.69 3.06h22.72C231.86 471.82 234 470.29 236.26 469.53zM224.37 477.94h-25.22c-2.76 3.06-5.27 4.59-7.47 6.88h28.13C221.13 482.52 222.66 480.99 224.37 477.94zM217.65 489.4h-29.78c-2.15 3.82-3.78 6.88-4.75 10.7h31.68C215.36 496.28 216.32 493.22 217.65 489.4zM299.52 500.1h31.64c-0.98-3.82-2.62-6.88-4.79-10.7H296.67C297.99 493.22 298.95 496.28 299.52 500.1zM294.5 484.82h28.02c-2.22-2.29-4.74-3.82-7.52-6.88h-25.05C291.66 480.99 293.18 482.52 294.5 484.82zM284.44 472.59h22.53c-2.45-0.77-5.01-2.29-7.69-3.06h-21.22C280.32 470.29 282.46 471.82 284.44 472.59zM257.16 550.09c-7.18 0-13.94-2.59-19.89-4.89h-21.45c11.71 4.59 25.56 9.47 41.33 9.47 15.77 0 29.63-4.88 41.33-9.46h-21.43C271.1 547.49 264.34 550.09 257.16 550.09zM294.81 527.62h28.23c3.05-3.82 5.46-7.64 7.05-10.7h-31.24C297.95 519.98 296.58 524.56 294.81 527.62zM279.9 542.91h21.74c2.52-1.53 4.92-2.89 7.22-4.35 4.18-2.63 7.99-4.82 11.27-8.65h-26.95C289.76 535.26 285.22 540.61 279.9 542.91zM214.21 506.61c0-1.1 0.06-1.15 0.14-3.45h-32.06c-0.13 2.29-0.2 2.42-0.2 3.48 0 2.38 0.33 4.93 0.94 7.22h31.78C214.42 511.57 214.21 509.02 214.21 506.61zM332 503.16h-32.02c0.08 2.29 0.14 2.35 0.14 3.45 0 2.41-0.21 4.96-0.59 7.25h31.74c0.61-2.29 0.94-4.85 0.94-7.22C332.2 505.58 332.13 505.45 332 503.16zM221.14 529.91h-26.98c3.28 3.82 7.09 6.01 11.27 8.64 2.3 1.45 4.71 2.82 7.23 4.35h21.77C229.1 540.61 224.56 535.26 221.14 529.91zM215.47 516.92h-31.27c1.58 3.06 4 6.88 7.05 10.7h28.26C217.73 524.56 216.37 519.98 215.47 516.92z"/><path fill="#FFFFFF" d="M398.95 543.18l-21.63-37.27c-3.29-5.58-5.81-11.04-7.98-15.85 0.43 6.35 0.65 17.93 0.65 26.78v26.34h-13.77v-73.78h18.48l20.54 35.19c3.39 5.7 6.34 11.81 9.08 17.39 -0.55-7.44-0.77-20.55-0.77-29.62v-22.96h13.77v73.78L398.95 543.18 398.95 543.18zM491.21 506.34c0 17.71-10.27 25.16-19.9 25.16 -13.22 0-19.35-10.17-19.35-25.8 0-16.61 9.4-24.71 19.57-24.71C484.21 480.99 491.21 489.94 491.21 506.34M506.4 505.26c0-25.25-13.88-37.05-33.55-37.05 -19.77 0-36.06 14.65-36.06 39.02 0 22.85 11.03 37.16 33.56 37.16C490.32 544.39 506.4 529.64 506.4 505.26"/><polygon fill="#FFFFFF" points="549.02 481.54 549.02 543.18 534.8 543.18 534.8 481.54 515.67 481.54 515.67 469.41 568.14 469.41 568.14 481.54 "/><rect x="584.53" y="469.41" fill="#FFFFFF" width="14.21" height="73.78"/><path fill="#FFFFFF" d="M652.86 544.17c-25.81 0-34.11-17.15-34.11-35.52 0-23.38 12.23-39.78 36.93-39.78 5.25 0 10.83 0.65 15.65 1.98l-1.53 12.89c-4.8-1.42-9.82-2.19-14.87-2.19 -13.77 0-20.54 10.39-20.54 24.7 0 16.08 6.66 25.03 21.53 25.03 4.48 0 10.48-1.31 14.32-3.07l1.64 12.69C666.39 542.86 659.73 544.17 652.86 544.17"/><rect x="693.06" y="469.41" fill="#FFFFFF" width="14.21" height="73.78"/><polygon fill="#FFFFFF" points="732.82 543.18 732.82 469.41 772.93 469.41 772.93 481.32 747.04 481.32 747.04 499.46 771.62 499.46 771.62 511.04 747.04 511.04 747.04 531.06 772.93 531.06 772.93 543.18 "/><path fill="#FFFFFF" d="M828.03 491.16c0 6.89-5.25 11.26-13.77 11.26 -2.19 0-4.14-0.09-5.14-0.22v-21.31c1.43-0.21 3.5-0.33 5.6-0.33C823.65 480.55 828.03 484.06 828.03 491.16M847.8 543.18l-17.7-24.81c-1.87-2.5-3.94-5.35-6.02-8.07 11.16-1.76 18.81-9.63 18.81-20.55 0-15.09-10.5-20.78-26.77-20.78 -8.53 0-15.42 0.12-21.21 0.45v73.78h14.21v-30.49h0.55l20.55 30.49H847.8zM914.38 506.34c0 17.71-10.28 25.16-19.9 25.16 -13.22 0-19.35-10.17-19.35-25.8 0-16.61 9.4-24.71 19.58-24.71C907.37 480.99 914.38 489.94 914.38 506.34M929.56 505.26c0-25.25-13.88-37.05-33.56-37.05 -19.78 0-36.08 14.65-36.08 39.02 0 22.85 11.04 37.16 33.56 37.16C913.49 544.39 929.56 529.64 929.56 505.26M962.68 544.39c-5.24 0-10.5-0.56-15.08-1.76l0.87-13.22c4.15 1.43 10.06 2.63 15.42 2.63 7.21 0 12.77-2.95 12.77-9.73 0-14.1-30.92-7.65-30.92-31.91 0-13.13 10.38-22.18 28.09-22.18 4.15 0 8.97 0.55 13.34 1.31l-0.77 12.46c-4.16-1.19-8.75-1.98-13.22-1.98 -8.2 0-12.35 3.74-12.35 8.97 0 13.23 31.03 8.31 31.03 31.36C991.86 534.22 980.82 544.39 962.68 544.39"/><path fill="#F48120" d="M28.08 163.09h117.89c-0.79-2.56-2.17-5.12-4.05-7.63H32.12C30.25 157.96 28.86 160.53 28.08 163.09zM87.02 206.34h0c11.14 0.25 22.85-2.75 32.92-7.54H54.1C64.17 203.59 75.88 206.59 87.02 206.34zM27.34 168.62v0.24c-0.09 1.74 0.14 3.52 0.67 5.3h118.03c0.53-1.78 0.77-3.56 0.67-5.3v-0.24c0.04-0.79 0.02-1.58-0.07-2.38H27.41C27.32 167.04 27.29 167.83 27.34 168.62zM35.19 151.85h103.65c-1.72-1.8-3.68-3.55-5.84-5.22H41.04C38.88 148.29 36.92 150.05 35.19 151.85zM35.04 185.48H139c2.64-2.78 4.69-5.69 6.02-8.62H29.02C30.34 179.79 32.41 182.7 35.04 185.48zM51.39 197.45h71.26c5.48-2.87 10.37-6.27 14.3-9.94H37.09C41.02 191.17 45.92 194.57 51.39 197.45zM87.02 131.14H87.02c-6.88-0.15-13.97 0.93-20.76 2.91h41.53C100.99 132.07 93.9 130.99 87.02 131.14zM53.42 139.01c-2.25 1.1-4.43 2.29-6.49 3.56h80.17c-2.06-1.26-4.23-2.46-6.49-3.56H53.42z"/><radialGradient id="SVGID_8_" cx="-82.55" cy="-25.25" r="34.51" gradientTransform="matrix(1.4318 0 0 1.4318 216.8171 191.783)" gradientUnits="userSpaceOnUse"><stop offset="0.1" stop-color="#FFFFFF"/><stop offset="0.4" stop-color="#FDBE57"/><stop offset="0.85" stop-color="#F48120"/><stop offset="0.89" stop-color="#F48323"/><stop offset="0.91" stop-color="#F5892D"/><stop offset="0.94" stop-color="#F6923E"/><stop offset="0.97" stop-color="#F8A056"/><stop offset="0.99" stop-color="#FAB174"/><stop offset="1" stop-color="#FBBB85"/></radialGradient><circle fill="url(#SVGID_8_)" cx="87.01" cy="168.74" r="32.95"/><path fill="#FFFFFF" d="M19.26 231.18h-7.12v-6.51H34.2v6.51h-7.12v18.9h-7.83V231.18zM38.33 238.76c0.32-1.99 1.53-3.1 3.63-3.1 1.82 0 3.1 1.39 3.1 3.1H38.33zM51.82 242.43c0-7.19-3.17-11.28-10.5-11.28 -5.84 0-9.75 4.38-9.75 9.76 0 6.15 4.45 9.64 10.36 9.64 4.2 0 8.08-1.85 9.5-5.83h-6.58c-0.57 0.89-1.81 1.32-2.95 1.32 -2.2 0-3.42-1.49-3.59-3.6H51.82zM55.27 224.67h7.05v25.41h-7.05V224.67zM72.5 238.76c0.32-1.99 1.53-3.1 3.63-3.1 1.81 0 3.1 1.39 3.1 3.1H72.5zM85.99 242.43c0-7.19-3.17-11.28-10.5-11.28 -5.84 0-9.75 4.38-9.75 9.76 0 6.15 4.45 9.64 10.35 9.64 4.2 0 8.08-1.85 9.5-5.83h-6.58c-0.57 0.89-1.81 1.32-2.95 1.32 -2.21 0-3.42-1.49-3.6-3.6H85.99zM101.57 250.08H93.24l-6.05-18.47h7.44l2.88 11.25h0.07l2.93-11.25h7.19L101.57 250.08zM110.3 231.61h7.04v18.47h-7.03V231.61zM117.33 229.62h-7.03v-4.94h7.04V229.62zM132.22 236.99c-0.04-0.61-0.36-1.07-0.82-1.39 -0.42-0.36-1-0.53-1.56-0.53 -1 0-2.14 0.21-2.14 1.42 0 0.54 0.43 0.79 0.82 0.97 1.18 0.5 3.84 0.64 6.19 1.42 2.34 0.75 4.41 2.14 4.41 5.16 0 5.13-4.91 6.52-9.39 6.52 -4.35 0-9.12-1.74-9.22-6.52h6.73c0.03 0.65 0.32 1.18 0.85 1.64 0.36 0.33 1.03 0.54 1.89 0.54 0.92 0 2.38-0.35 2.38-1.42 0-1.07-0.61-1.39-3.88-1.96 -5.37-0.92-7.55-2.63-7.55-5.8 0-4.66 5.02-5.87 8.73-5.87 3.98 0 8.78 1.1 8.96 5.84H132.22zM154.29 243.5c-0.11 1.92-1.35 2.88-2.96 2.88 -1.28 0-2.2-0.85-2.2-1.7 0-1.24 0.81-1.64 2.38-1.99 0.97-0.22 1.93-0.46 2.78-0.89V243.5L154.29 243.5zM161.04 238.37c0-3.56 0.07-7.23-8.76-7.23 -4.38 0-9.29 0.85-9.5 6.05h6.55c0.03-0.79 0.45-1.89 2.63-1.89 1.14 0 2.32 0.47 2.32 1.71 0 1.18-0.96 1.46-1.92 1.64 -3.59 0.68-10.43 0.46-10.43 6.3 0 3.88 2.95 5.59 6.52 5.59 2.27 0 4.45-0.49 5.94-2.21h0.07c-0.04 0.5 0.07 1.25 0.25 1.75h7.19c-0.78-1.17-0.86-2.73-0.86-4.13L161.04 238.37 161.04 238.37z"/><path fill="#F48120" d="M12.79 49.24h148.45c-0.99-3.22-2.73-6.45-5.1-9.61H17.88C15.52 42.79 13.78 46.02 12.79 49.24zM87.01 103.72h0c14.03 0.31 28.77-3.47 41.46-9.5H45.56C58.24 100.25 72.98 104.03 87.01 103.72zM11.86 56.22v0.3c-0.12 2.19 0.18 4.43 0.84 6.67h148.63c0.66-2.24 0.97-4.48 0.84-6.67v-0.3c0.05-0.99 0.02-1.99-0.09-3H11.95C11.84 54.22 11.8 55.22 11.86 56.22zM21.75 35.09h130.52c-2.17-2.27-4.64-4.47-7.36-6.57H29.11C26.39 30.62 23.92 32.82 21.75 35.09zM21.56 77.44h130.91c3.32-3.51 5.91-7.16 7.59-10.85H13.97C15.64 70.28 18.24 73.94 21.56 77.44zM42.15 92.51h89.73c6.89-3.62 13.06-7.9 18.01-12.51H24.14C29.08 84.61 35.25 88.89 42.15 92.51zM87.02 9.02h0c-8.66-0.19-17.6 1.17-26.15 3.67h52.29C104.61 10.19 95.68 8.82 87.02 9.02zM44.71 18.93c-2.84 1.39-5.58 2.89-8.17 4.48h100.95c-2.59-1.59-5.32-3.09-8.17-4.48H44.71z"/><radialGradient id="SVGID_9_" cx="-80.45" cy="-106.11" r="43.46" gradientTransform="matrix(1.4318 0 0 1.4318 216.8171 191.783)" gradientUnits="userSpaceOnUse"><stop offset="0.1" stop-color="#FFFFFF"/><stop offset="0.4" stop-color="#FDBE57"/><stop offset="0.85" stop-color="#F48120"/><stop offset="0.89" stop-color="#F48323"/><stop offset="0.91" stop-color="#F5892D"/><stop offset="0.94" stop-color="#F6923E"/><stop offset="0.97" stop-color="#F8A056"/><stop offset="0.99" stop-color="#FAB174"/><stop offset="1" stop-color="#FBBB85"/></radialGradient><path fill="url(#SVGID_9_)" d="M87 14.87c-22.91 0-41.48 18.58-41.48 41.49 0 22.91 18.57 41.49 41.49 41.49 22.92 0 41.49-18.57 41.49-41.49C128.49 33.45 109.92 14.87 87 14.87z"/></svg>